<?xml version="1.0" standalone="no"?><!DOCTYPE svg PUBLIC "-//W3C//DTD SVG 1.1//EN" "http://www.w3.org/Graphics/SVG/1.1/DTD/svg11.dtd"><svg t="1777958324999" class="icon" viewBox="0 0 1024 1024" version="1.1" xmlns="http://www.w3.org/2000/svg" p-id="5715" xmlns:xlink="http://www.w3.org/1999/xlink" width="200" height="200"><path d="M425.664 112a481.344 481.344 0 0 0-113.024 38.656c0.896 31.808 2.88 62.208 7.04 93.056-13.952 8.96-28.672 16.64-41.664 27.072-13.312 10.24-26.816 19.968-38.848 31.872a729.856 729.856 0 0 0-75.456-43.904c-28.096 30.272-54.4 63.04-75.968 99.648 16.192 26.176 33.088 50.688 51.328 73.984h0.512v224.768H140.8l137.728 13.312a14.848 14.848 0 0 1 13.44 13.76l4.224 60.8 120.192 8.512 8.32-56.128a14.848 14.848 0 0 1 14.656-12.672h145.28c7.36 0 13.632 5.44 14.72 12.672l8.32 56.128 120.128-8.512 4.288-60.8a14.912 14.912 0 0 1 13.376-13.76l137.664-13.248 1.28-0.064V432.448h0.512c18.24-23.296 35.2-47.808 51.328-73.984a578.56 578.56 0 0 0-76.032-99.648c-26.112 13.12-51.456 28.032-75.456 43.84-11.968-11.904-25.472-21.696-38.784-31.872-12.992-10.432-27.648-18.112-41.6-27.072 4.096-30.912 6.144-61.312 7.04-93.056a484.608 484.608 0 0 0-113.088-38.72 800 800 0 0 0-42.048 81.792 282.752 282.752 0 0 0-43.968-3.52h-0.64a282.112 282.112 0 0 0-43.968 3.52 800 800 0 0 0-42.048-81.792zM316.8 440.64a83.008 83.008 0 1 1 0 166.016 83.008 83.008 0 0 1 0-166.016z m390.528 0a83.008 83.008 0 1 1 0 166.08 83.008 83.008 0 0 1 0-166.08zM512 489.216c14.784 0 26.752 10.88 26.752 24.32v76.416c0 13.44-12.032 24.32-26.752 24.32-14.784 0-26.752-10.88-26.752-24.32V513.536c0-13.44 11.968-24.32 26.752-24.32z" fill="#42A5F5" p-id="5716"></path><path d="M760.704 698.88l-4.224 61.12a14.784 14.784 0 0 1-13.76 13.76l-146.688 10.432h-1.152a14.848 14.848 0 0 1-14.656-12.608l-8.32-57.152H452.096l-8.384 57.152a14.784 14.784 0 0 1-15.808 12.608l-146.688-10.496a14.912 14.912 0 0 1-13.76-13.76l-4.288-61.184-123.84-11.904 0.256 30.72c0 130.88 165.952 193.728 372.096 194.496h0.512c206.208-0.768 372.096-63.616 372.096-194.432l0.256-30.784z" fill="#42A5F5" p-id="5717"></path></svg>