<?xml version="1.0" standalone="no"?><!DOCTYPE svg PUBLIC "-//W3C//DTD SVG 1.1//EN" "http://www.w3.org/Graphics/SVG/1.1/DTD/svg11.dtd"><svg t="1777958541772" class="icon" viewBox="0 0 1024 1024" version="1.1" xmlns="http://www.w3.org/2000/svg" p-id="15067" xmlns:xlink="http://www.w3.org/1999/xlink" width="200" height="200"><path d="M512 28a484.14 484.14 0 0 1 188.38 930A484.14 484.14 0 0 1 323.62 66 481.02 481.02 0 0 1 512 28m0-28C229.22 0 0 229.24 0 512s229.22 512 512 512 512-229.24 512-512S794.78 0 512 0z" p-id="15068"></path><path d="M512 204.84m-54.84 0a54.84 54.84 0 1 0 109.68 0 54.84 54.84 0 1 0-109.68 0Z" p-id="15069"></path><path d="M512 338.64s48.26 26.34 61.42 8.78-34.48-59.2 0-87.74c42.42-35.1 109.68 30.72 178.42 54s156.48 38 159.4 46.8-14.62 10.24-14.62 10.24l-8.78 5.86c-4.4 2.92-11.7 0-11.7 0s-10.98 13.88-21.2 16.8a118.74 118.74 0 0 1-22 3.66s-8.78 9.52-27.06 15.36-25.58 2.92-25.58 2.92-10.98 8-18.28 10.24-17.56 0-17.56 0-10.24 9.5-23.4 11.7a79.44 79.44 0 0 1-24.86 0 67.28 67.28 0 0 1-30 8c-16 0-36.56-11.7-36.56-11.7l7.32 8.78s-22 7.32-31.44 6.58-19.02-14.62-19.02-14.62l2.92 10.24s-13.16 5.84-22.66 2.18-52.56-73.7-54.76-108.08z" p-id="15070"></path><path d="M512 338.64s-48.26 26.34-61.42 8.78 34.48-59.2 0-87.74c-42.42-35.1-109.68 30.72-178.42 54s-156.48 38-159.4 46.8 14.62 10.24 14.62 10.24l8.78 5.86c4.4 2.92 11.7 0 11.7 0s10.98 13.88 21.2 16.8a118.74 118.74 0 0 0 22 3.66s8.78 9.52 27.06 15.36 25.58 2.92 25.58 2.92 10.98 8 18.28 10.24 17.56 0 17.56 0 10.24 9.5 23.4 11.7a79.44 79.44 0 0 0 24.86 0 67.28 67.28 0 0 0 30 8c16 0 36.56-11.7 36.56-11.7l-7.32 8.78s22 7.32 31.44 6.58 19.02-14.62 19.02-14.62l-2.92 10.24s13.16 5.84 22.66 2.18 52.56-73.7 54.76-108.08zM548 480c4.76-4 13.5-0.96 23 0s16-0.64 23.5 2.9 22.5 12.56 31.5 16.42 27.5 13.52 12 25.1-84.66 36-124.32 45.72-60.68 13.2-64.18 15.76 62.5 11.6 84.5 15.46 58 10 56 21.24-33.5 17.72-69 25.12-49.5 10.94-49.5 13.84 41 12 53 15.76 35.1 11.56 33.5 21.58c-2 12.56-19.5 20-39 25.76s-28.5 9.64-29 12.86S518.56 754 529.56 764s13 23.18-11 38.64 1.5 40.88 0 43.46-24.5-21.9-22-33.8 33.5-25.44 29-33.82-24-20-37.5-25.74-27.5-17.06-0.5-28 53.36-19.7 55-26c1-3.86-25-11.28-49-17.38s-42.5-11.6-40.5-22.22 43-18.34 60-21.88 51.5-10.96 52-13.2-46-9.02-71-13.2-81.5-9.66-74.5-27.36 53-13.52 145.5-46.68c50.3-18 51-18 51-21.58s-30-9-45.5-13.2-30.5-8.36-29.5-12.54 2-5.32 6.94-9.5z" p-id="15071"></path><path d="M476 480c-4.76-4-13.5-0.96-23 0s-16-0.64-23.5 2.9-22.5 12.56-31.5 16.42-27.5 13.52-12 25.1 84.66 36 124.32 45.72 60.68 13.2 64.18 15.76-62.5 11.6-84.5 15.46-58 10-56 21.24 33.5 17.72 69 25.12 49.5 10.94 49.5 13.84-41 12-53 15.76-35.1 11.56-33.5 21.58c2 12.56 19.5 20 39 25.76s28.5 9.64 29 12.86S505.44 754 494.44 764s-13 23.18 11 38.64-1.5 40.88 0 43.46 24.5-21.9 22-33.8-33.44-25.52-29-33.9 24-20 37.5-25.74 27.5-17.06 0.5-28-53.36-19.7-55-26c-1-3.86 25-11.28 49-17.38s42.5-11.6 40.5-22.22-43-18.34-60-21.88-51.5-10.96-52-13.2 46-9.02 71-13.2 81.5-9.66 74.5-27.36-53-13.52-145.5-46.68c-50.3-18-51-18-51-21.58s30-9 45.5-13.2 30.5-8.36 29.5-12.54-2-5.24-6.94-9.42z" p-id="15072"></path><path d="M510.72 913.2l-11.44-674h25.44l-14 674z" p-id="15073"></path><path d="M490.6 255.34h42.8v26.26h-42.8z" p-id="15074"></path></svg>